<svg xmlns="http://www.w3.org/2000/svg" viewBox="0 0 400 240">
  <!-- Lil Sauce tvOS App Icon - Composite preview
       Safe zone: 370x222 (15px sides, 9px top/bottom)
       Tiles: 55x70, gap 8px horiz, 15px between rows
       No rounded corners on outer rect (tvOS applies its own mask) -->
  <rect width="400" height="240" fill="#1A1A1A"/>

  <!-- Row 1: L I L (centered at x=110, y=43) -->
  <rect x="110" y="43" width="55" height="70" fill="#2A2A2A" rx="4"/>
  <line x1="110" y1="78" x2="165" y2="78" stroke="#111" stroke-width="1.5"/>
  <text x="137.5" y="91" text-anchor="middle" font-family="Menlo, monospace" font-weight="bold" font-size="38" fill="#F0E6D0">L</text>

  <rect x="173" y="43" width="55" height="70" fill="#2A2A2A" rx="4"/>
  <line x1="173" y1="78" x2="228" y2="78" stroke="#111" stroke-width="1.5"/>
  <text x="200.5" y="91" text-anchor="middle" font-family="Menlo, monospace" font-weight="bold" font-size="38" fill="#F0E6D0">I</text>

  <rect x="236" y="43" width="55" height="70" fill="#2A2A2A" rx="4"/>
  <line x1="236" y1="78" x2="291" y2="78" stroke="#111" stroke-width="1.5"/>
  <text x="263.5" y="91" text-anchor="middle" font-family="Menlo, monospace" font-weight="bold" font-size="38" fill="#F0E6D0">L</text>

  <!-- Row 2: S A U C E (centered at x=47, y=128) -->
  <rect x="47" y="128" width="55" height="70" fill="#2A2A2A" rx="4"/>
  <line x1="47" y1="163" x2="102" y2="163" stroke="#111" stroke-width="1.5"/>
  <text x="74.5" y="176" text-anchor="middle" font-family="Menlo, monospace" font-weight="bold" font-size="38" fill="#F0E6D0">S</text>

  <rect x="110" y="128" width="55" height="70" fill="#2A2A2A" rx="4"/>
  <line x1="110" y1="163" x2="165" y2="163" stroke="#111" stroke-width="1.5"/>
  <text x="137.5" y="176" text-anchor="middle" font-family="Menlo, monospace" font-weight="bold" font-size="38" fill="#F0E6D0">A</text>

  <rect x="173" y="128" width="55" height="70" fill="#2A2A2A" rx="4"/>
  <line x1="173" y1="163" x2="228" y2="163" stroke="#111" stroke-width="1.5"/>
  <text x="200.5" y="176" text-anchor="middle" font-family="Menlo, monospace" font-weight="bold" font-size="38" fill="#F0E6D0">U</text>

  <rect x="236" y="128" width="55" height="70" fill="#2A2A2A" rx="4"/>
  <line x1="236" y1="163" x2="291" y2="163" stroke="#111" stroke-width="1.5"/>
  <text x="263.5" y="176" text-anchor="middle" font-family="Menlo, monospace" font-weight="bold" font-size="38" fill="#F0E6D0">C</text>

  <rect x="299" y="128" width="55" height="70" fill="#2A2A2A" rx="4"/>
  <line x1="299" y1="163" x2="354" y2="163" stroke="#111" stroke-width="1.5"/>
  <text x="326.5" y="176" text-anchor="middle" font-family="Menlo, monospace" font-weight="bold" font-size="38" fill="#F0E6D0">E</text>
</svg>
